# xmcd
#
# Track frame offsets:
#	150
#	17508
#	39911
#	56033
#	77960
#	100787
#
# Disc length: 1768 seconds
#
# Revision: 0
# Processed by: cddbd v1.5.2PL0 Copyright (c) Steve Scherf et al.
# Submitted via: EasyCDDAExtractor 12.0.5.1
#
DISCID=3e06e606
DTITLE=18 South - Soulful Southern Roots Music
DYEAR=2010
DGENRE=Bluegrass
TTITLE0=Late Night Ramble
TTITLE1=Angola Way
TTITLE2=Wanna Be Blue
TTITLE3=Telluride
TTITLE4=Winds of the World
TTITLE5=Run On
EXTD=
EXTT0=
EXTT1=
EXTT2=
EXTT3=
EXTT4=
EXTT5=
PLAYORDER=
